<svg width="25" height="25" viewBox="0 0 25 25" fill="none" xmlns="http://www.w3.org/2000/svg">
<path d="M21.2848 7.42893C21.112 7.12955 20.8646 6.88006 20.5667 6.7048C20.2687 6.52954 19.9305 6.4345 19.5848 6.42893H6.78483L6.20483 4.16893C6.14623 3.95077 6.01549 3.75888 5.83391 3.6245C5.65233 3.49013 5.4306 3.4212 5.20483 3.42893H3.20483C2.93962 3.42893 2.68526 3.53429 2.49773 3.72182C2.31019 3.90936 2.20483 4.16371 2.20483 4.42893C2.20483 4.69415 2.31019 4.9485 2.49773 5.13604C2.68526 5.32357 2.93962 5.42893 3.20483 5.42893H4.44483L7.20483 15.6889C7.26343 15.9071 7.39417 16.099 7.57576 16.2334C7.75734 16.3677 7.97907 16.4367 8.20483 16.4289H17.2048C17.3895 16.4284 17.5704 16.3767 17.7275 16.2796C17.8846 16.1825 18.0117 16.0438 18.0948 15.8789L21.3748 9.31893C21.517 9.02095 21.5832 8.6924 21.5675 8.36261C21.5518 8.03283 21.4547 7.71206 21.2848 7.42893ZM16.5848 14.4289H8.96483L7.33483 8.42893H19.5848L16.5848 14.4289Z" fill="#EB5E24"/>
<path d="M7.70483 21.429C8.53326 21.429 9.20483 20.7574 9.20483 19.929C9.20483 19.1005 8.53326 18.429 7.70483 18.429C6.87641 18.429 6.20483 19.1005 6.20483 19.929C6.20483 20.7574 6.87641 21.429 7.70483 21.429Z" fill="#EB5E24"/>
<path d="M17.7048 21.429C18.5333 21.429 19.2048 20.7574 19.2048 19.929C19.2048 19.1005 18.5333 18.429 17.7048 18.429C16.8764 18.429 16.2048 19.1005 16.2048 19.929C16.2048 20.7574 16.8764 21.429 17.7048 21.429Z" fill="#EB5E24"/>
</svg>
